# xmcd CD database file generated by Grip 2.95
# 
# Track frame offsets:
#       150
#       22447
#       47405
#       69612
#       84040
#       96610
#       119245
#       137357
#       147210
#       155410
#       168915
#       179952
#       196400
#       208370
#       226782
#       245194
#       263879
#       277192
# 
# Disc length: 3915 seconds
# 
# Revision: 3
# Processed by: cddbd v1.4PL0 Copyright (c) Steve Scherf et al.
# Submitted via: Grip 2.95
# 
DISCID=1c0f4912
DTITLE=Renft - Wer die Rose Ehrt
DYEAR=1900
DGENRE=
TTITLE0=Zwischen Liebe und Zorn
TTITLE1=Cäsars Blues
TTITLE2=Der Apfelbaum
TTITLE3=Wer die Rose ehrt
TTITLE4=Chilenisches Metall
TTITLE5=Nach der Sclacht
TTITLE6=Als ich wie ein Vogel war
TTITLE7=Kinder ich bin nicht der Sandmann
TTITLE8=Baggerfüher Willi
TTITLE9=Ketten werden knapper
TTITLE10=Liebeslied
TTITLE11=Der Witz
TTITLE12=Wandersmann
TTITLE13=Ich und der Rock
TTITLE14=Gänselieschen
TTITLE15=Was mir fehlt
TTITLE16=Irgendwann werd ich mal...
TTITLE17=Besinnung (Bonustrack)
EXTD=
EXTT0=
EXTT1=
EXTT2=
EXTT3=
EXTT4=
EXTT5=
EXTT6=
EXTT7=
EXTT8=
EXTT9=
EXTT10=
EXTT11=
EXTT12=
EXTT13=
EXTT14=
EXTT15=
EXTT16=
EXTT17=
PLAYORDER=
